<?xml version="1.0" ?><!DOCTYPE svg  PUBLIC '-//W3C//DTD SVG 1.1//EN'  'http://www.w3.org/Graphics/SVG/1.1/DTD/svg11.dtd'><svg height="100%" style="fill-rule:evenodd;clip-rule:evenodd;stroke-linejoin:round;stroke-miterlimit:2;" version="1.1" viewBox="0 0 64 64" width="100%" xml:space="preserve" xmlns="http://www.w3.org/2000/svg" xmlns:serif="http://www.serif.com/" xmlns:xlink="http://www.w3.org/1999/xlink"><g transform="matrix(1,0,0,1,-227,-78)"><g id="Artboard1" transform="matrix(1,0,0,1,227,78)"><rect height="64" style="fill:none;" width="64" x="0" y="0"/><g transform="matrix(1,0,0,1,-227,-78)"><path d="M288.25,100.143C288.25,94.012 283.273,89.035 277.143,89.035L240.857,89.035C234.727,89.035 229.75,94.012 229.75,100.143C229.75,100.143 229.75,119.857 229.75,119.857C229.75,125.988 234.727,130.965 240.857,130.965C240.857,130.965 277.143,130.965 277.143,130.965C283.273,130.965 288.25,125.988 288.25,119.857C288.25,119.857 288.25,100.143 288.25,100.143ZM285.75,100.143L285.75,119.857C285.75,124.608 281.893,128.465 277.143,128.465L240.857,128.465C236.107,128.465 232.25,124.608 232.25,119.857L232.25,100.143C232.25,95.392 236.107,91.535 240.857,91.535C240.857,91.535 277.143,91.535 277.143,91.535C281.893,91.535 285.75,95.392 285.75,100.143Z"/></g><g transform="matrix(6.12323e-17,1,-1,6.12323e-17,142.726,-229.226)"><path d="M262.344,102.941C262.133,102.518 261.7,102.25 261.226,102.25C260.753,102.25 260.32,102.518 260.108,102.941L252.882,117.394C252.688,117.781 252.709,118.241 252.937,118.61C253.164,118.978 253.567,119.203 254,119.203L268.453,119.203C268.886,119.203 269.288,118.978 269.516,118.61C269.744,118.241 269.764,117.781 269.571,117.394L262.344,102.941ZM261.226,106.295L266.43,116.703C266.43,116.703 256.023,116.703 256.023,116.703L261.226,106.295Z"/></g></g></g></svg>